<mxfile host="app.diagrams.net" modified="2023-06-04T09:55:11.525Z" agent="Mozilla/5.0 (X11; Linux x86_64; rv:109.0) Gecko/20100101 Firefox/113.0" etag="M0xCrYbHQCdZB4CiUQME" version="21.3.7" type="device">
  <diagram name="Page-1" id="Gkf1IhDUhFcwobAsrHc0">
    <mxGraphModel dx="2282" dy="764" grid="1" gridSize="10" guides="1" tooltips="1" connect="1" arrows="1" fold="1" page="1" pageScale="1" pageWidth="850" pageHeight="1100" math="0" shadow="0">
      <root>
        <mxCell id="0" />
        <mxCell id="1" parent="0" />
        <mxCell id="BWuLAXb4xlK9K-YW4bOv-2" value="" style="points=[[0,0],[0.25,0],[0.5,0],[0.75,0],[1,0],[1,0.25],[1,0.5],[1,0.75],[1,1],[0.75,1],[0.5,1],[0.25,1],[0,1],[0,0.75],[0,0.5],[0,0.25]];outlineConnect=0;gradientColor=none;html=1;whiteSpace=wrap;fontSize=12;fontStyle=0;container=1;pointerEvents=0;collapsible=0;recursiveResize=0;shape=mxgraph.aws4.group;grIcon=mxgraph.aws4.group_vpc;strokeColor=#3333FF;fillColor=none;verticalAlign=top;align=left;spacingLeft=30;fontColor=#AAB7B8;dashed=0;" vertex="1" parent="1">
          <mxGeometry x="170" y="260" width="620" height="250" as="geometry" />
        </mxCell>
        <mxCell id="BWuLAXb4xlK9K-YW4bOv-1" value="" style="sketch=0;points=[[0,0,0],[0.25,0,0],[0.5,0,0],[0.75,0,0],[1,0,0],[0,1,0],[0.25,1,0],[0.5,1,0],[0.75,1,0],[1,1,0],[0,0.25,0],[0,0.5,0],[0,0.75,0],[1,0.25,0],[1,0.5,0],[1,0.75,0]];outlineConnect=0;fontColor=#232F3E;gradientColor=#4D72F3;gradientDirection=north;fillColor=#3334B9;strokeColor=#ffffff;dashed=0;verticalLabelPosition=bottom;verticalAlign=top;align=center;html=1;fontSize=12;fontStyle=0;aspect=fixed;shape=mxgraph.aws4.resourceIcon;resIcon=mxgraph.aws4.codepipeline;" vertex="1" parent="BWuLAXb4xlK9K-YW4bOv-2">
          <mxGeometry width="50" height="50" as="geometry" />
        </mxCell>
        <mxCell id="BWuLAXb4xlK9K-YW4bOv-3" value="" style="verticalLabelPosition=bottom;html=1;verticalAlign=top;align=center;strokeColor=none;fillColor=#00BEF2;shape=mxgraph.azure.github_code;pointerEvents=1;" vertex="1" parent="BWuLAXb4xlK9K-YW4bOv-2">
          <mxGeometry x="75" y="130" width="70" height="70" as="geometry" />
        </mxCell>
        <mxCell id="BWuLAXb4xlK9K-YW4bOv-4" value="" style="sketch=0;points=[[0,0,0],[0.25,0,0],[0.5,0,0],[0.75,0,0],[1,0,0],[0,1,0],[0.25,1,0],[0.5,1,0],[0.75,1,0],[1,1,0],[0,0.25,0],[0,0.5,0],[0,0.75,0],[1,0.25,0],[1,0.5,0],[1,0.75,0]];outlineConnect=0;fontColor=#232F3E;gradientColor=#4D72F3;gradientDirection=north;fillColor=#3334B9;strokeColor=#ffffff;dashed=0;verticalLabelPosition=bottom;verticalAlign=top;align=center;html=1;fontSize=12;fontStyle=0;aspect=fixed;shape=mxgraph.aws4.resourceIcon;resIcon=mxgraph.aws4.codebuild;" vertex="1" parent="BWuLAXb4xlK9K-YW4bOv-2">
          <mxGeometry x="241" y="131" width="78" height="78" as="geometry" />
        </mxCell>
        <mxCell id="BWuLAXb4xlK9K-YW4bOv-5" value="&lt;b&gt;ECS Deploy&lt;/b&gt;" style="shape=hexagon;perimeter=hexagonPerimeter2;whiteSpace=wrap;html=1;fixedSize=1;fillColor=#d5e8d4;strokeColor=#82b366;" vertex="1" parent="BWuLAXb4xlK9K-YW4bOv-2">
          <mxGeometry x="415" y="124" width="120" height="80" as="geometry" />
        </mxCell>
        <mxCell id="BWuLAXb4xlK9K-YW4bOv-6" value="&lt;div&gt;&lt;b&gt;Source Step&lt;/b&gt;&lt;/div&gt;" style="rounded=1;whiteSpace=wrap;html=1;" vertex="1" parent="BWuLAXb4xlK9K-YW4bOv-2">
          <mxGeometry x="50" y="60" width="120" height="60" as="geometry" />
        </mxCell>
        <mxCell id="BWuLAXb4xlK9K-YW4bOv-7" value="&lt;b&gt;&lt;font style=&quot;font-size: 21px;&quot;&gt;CodePipeline&lt;/font&gt;&lt;/b&gt;" style="text;html=1;strokeColor=none;fillColor=none;align=center;verticalAlign=middle;whiteSpace=wrap;rounded=0;" vertex="1" parent="BWuLAXb4xlK9K-YW4bOv-2">
          <mxGeometry x="95" y="10" width="60" height="30" as="geometry" />
        </mxCell>
        <mxCell id="BWuLAXb4xlK9K-YW4bOv-8" value="&lt;b&gt;Build Step&lt;/b&gt;" style="rounded=1;whiteSpace=wrap;html=1;" vertex="1" parent="BWuLAXb4xlK9K-YW4bOv-2">
          <mxGeometry x="220" y="60" width="120" height="60" as="geometry" />
        </mxCell>
        <mxCell id="BWuLAXb4xlK9K-YW4bOv-9" value="&lt;b&gt;Deploy Step&lt;/b&gt;" style="rounded=1;whiteSpace=wrap;html=1;" vertex="1" parent="BWuLAXb4xlK9K-YW4bOv-2">
          <mxGeometry x="415" y="60" width="120" height="60" as="geometry" />
        </mxCell>
        <mxCell id="BWuLAXb4xlK9K-YW4bOv-12" value="" style="endArrow=classic;html=1;rounded=0;entryX=0.5;entryY=0;entryDx=0;entryDy=0;entryPerimeter=0;" edge="1" parent="BWuLAXb4xlK9K-YW4bOv-2" target="BWuLAXb4xlK9K-YW4bOv-10">
          <mxGeometry width="50" height="50" relative="1" as="geometry">
            <mxPoint x="280" y="210" as="sourcePoint" />
            <mxPoint x="330" y="160" as="targetPoint" />
          </mxGeometry>
        </mxCell>
        <mxCell id="BWuLAXb4xlK9K-YW4bOv-13" value="Push Image Latest" style="edgeLabel;html=1;align=center;verticalAlign=middle;resizable=0;points=[];" vertex="1" connectable="0" parent="BWuLAXb4xlK9K-YW4bOv-12">
          <mxGeometry x="-0.4175" y="-3" relative="1" as="geometry">
            <mxPoint x="2" y="38" as="offset" />
          </mxGeometry>
        </mxCell>
        <mxCell id="BWuLAXb4xlK9K-YW4bOv-14" value="&lt;b&gt;Github&lt;/b&gt;" style="text;html=1;strokeColor=none;fillColor=none;align=center;verticalAlign=middle;whiteSpace=wrap;rounded=0;" vertex="1" parent="BWuLAXb4xlK9K-YW4bOv-2">
          <mxGeometry x="80" y="204" width="60" height="30" as="geometry" />
        </mxCell>
        <mxCell id="BWuLAXb4xlK9K-YW4bOv-15" value="&lt;b&gt;Bake Image&lt;/b&gt;" style="text;html=1;strokeColor=none;fillColor=none;align=center;verticalAlign=middle;whiteSpace=wrap;rounded=0;" vertex="1" parent="BWuLAXb4xlK9K-YW4bOv-2">
          <mxGeometry x="235" y="205" width="90" height="30" as="geometry" />
        </mxCell>
        <mxCell id="BWuLAXb4xlK9K-YW4bOv-19" value="" style="endArrow=classic;html=1;rounded=0;" edge="1" parent="BWuLAXb4xlK9K-YW4bOv-2" target="BWuLAXb4xlK9K-YW4bOv-4">
          <mxGeometry width="50" height="50" relative="1" as="geometry">
            <mxPoint x="140" y="170" as="sourcePoint" />
            <mxPoint x="190" y="120" as="targetPoint" />
          </mxGeometry>
        </mxCell>
        <mxCell id="BWuLAXb4xlK9K-YW4bOv-20" value="" style="endArrow=classic;html=1;rounded=0;entryX=0;entryY=0.5;entryDx=0;entryDy=0;" edge="1" parent="BWuLAXb4xlK9K-YW4bOv-2" target="BWuLAXb4xlK9K-YW4bOv-5">
          <mxGeometry width="50" height="50" relative="1" as="geometry">
            <mxPoint x="320" y="164" as="sourcePoint" />
            <mxPoint x="370" y="110" as="targetPoint" />
          </mxGeometry>
        </mxCell>
        <mxCell id="BWuLAXb4xlK9K-YW4bOv-22" value="" style="endArrow=classic;startArrow=classic;html=1;rounded=0;entryX=0.33;entryY=0.72;entryDx=0;entryDy=0;entryPerimeter=0;" edge="1" parent="BWuLAXb4xlK9K-YW4bOv-2" target="BWuLAXb4xlK9K-YW4bOv-21">
          <mxGeometry width="50" height="50" relative="1" as="geometry">
            <mxPoint x="540" y="160" as="sourcePoint" />
            <mxPoint x="590" y="110" as="targetPoint" />
          </mxGeometry>
        </mxCell>
        <mxCell id="BWuLAXb4xlK9K-YW4bOv-23" value="&lt;b&gt;Trigger Deploy&lt;/b&gt;" style="text;html=1;strokeColor=none;fillColor=none;align=center;verticalAlign=middle;whiteSpace=wrap;rounded=0;" vertex="1" parent="BWuLAXb4xlK9K-YW4bOv-2">
          <mxGeometry x="580" y="80" width="60" height="30" as="geometry" />
        </mxCell>
        <mxCell id="BWuLAXb4xlK9K-YW4bOv-10" value="" style="outlineConnect=0;dashed=0;verticalLabelPosition=bottom;verticalAlign=top;align=center;html=1;shape=mxgraph.aws3.ecr_registry;fillColor=#F58534;gradientColor=none;" vertex="1" parent="1">
          <mxGeometry x="420" y="580" width="57" height="60" as="geometry" />
        </mxCell>
        <mxCell id="BWuLAXb4xlK9K-YW4bOv-11" value="ECR Repo" style="text;html=1;strokeColor=none;fillColor=none;align=center;verticalAlign=middle;whiteSpace=wrap;rounded=0;" vertex="1" parent="1">
          <mxGeometry x="420" y="650" width="60" height="30" as="geometry" />
        </mxCell>
        <mxCell id="BWuLAXb4xlK9K-YW4bOv-16" value="" style="sketch=0;outlineConnect=0;fontColor=#232F3E;gradientColor=none;fillColor=#BF0816;strokeColor=none;dashed=0;verticalLabelPosition=bottom;verticalAlign=top;align=center;html=1;fontSize=12;fontStyle=0;aspect=fixed;pointerEvents=1;shape=mxgraph.aws4.role;" vertex="1" parent="1">
          <mxGeometry x="-10" y="263" width="78" height="44" as="geometry" />
        </mxCell>
        <mxCell id="BWuLAXb4xlK9K-YW4bOv-17" value="&lt;b&gt;CodePipelineRole&lt;/b&gt;" style="text;html=1;strokeColor=none;fillColor=none;align=center;verticalAlign=middle;whiteSpace=wrap;rounded=0;" vertex="1" parent="1">
          <mxGeometry x="8" y="307" width="60" height="30" as="geometry" />
        </mxCell>
        <mxCell id="BWuLAXb4xlK9K-YW4bOv-18" value="" style="endArrow=classic;startArrow=classic;html=1;rounded=0;entryX=0;entryY=0.5;entryDx=0;entryDy=0;entryPerimeter=0;" edge="1" parent="1" source="BWuLAXb4xlK9K-YW4bOv-16" target="BWuLAXb4xlK9K-YW4bOv-1">
          <mxGeometry width="50" height="50" relative="1" as="geometry">
            <mxPoint x="110" y="310" as="sourcePoint" />
            <mxPoint x="160" y="260" as="targetPoint" />
          </mxGeometry>
        </mxCell>
        <mxCell id="BWuLAXb4xlK9K-YW4bOv-21" value="" style="outlineConnect=0;dashed=0;verticalLabelPosition=bottom;verticalAlign=top;align=center;html=1;shape=mxgraph.aws3.emr_cluster;fillColor=#F58534;gradientColor=none;" vertex="1" parent="1">
          <mxGeometry x="810" y="254" width="55.5" height="63" as="geometry" />
        </mxCell>
      </root>
    </mxGraphModel>
  </diagram>
</mxfile>
